<?xml version="1.0" encoding="utf-8"?>
<!-- Generator: Adobe Illustrator 17.0.0, SVG Export Plug-In . SVG Version: 6.00 Build 0)  -->
<!DOCTYPE svg PUBLIC "-//W3C//DTD SVG 1.1//EN" "http://www.w3.org/Graphics/SVG/1.1/DTD/svg11.dtd">
<svg version="1.1" id="图层_1" xmlns="http://www.w3.org/2000/svg" xmlns:xlink="http://www.w3.org/1999/xlink" x="0px" y="0px"
	 width="1030px" height="260px" viewBox="0 0 1030 260" enable-background="new 0 0 1030 260" xml:space="preserve">
<g>
	<path fill="none" d="M806.99,94.872h-24.912v39.168h24.912c21.456,0,26.64-10.224,26.64-19.584S828.446,94.872,806.99,94.872z"/>
	<polygon fill="none" points="683.112,98.616 663.96,144.552 663.96,145.272 702.408,145.272 702.408,144.552 683.4,98.616 	"/>
	<polygon fill="#9F9F9F" points="334.28,109.44 363.2,109.44 363.2,183 374.12,183 374.12,109.44 403.04,109.44 403.04,99.24 
		334.28,99.24 	"/>
	<polygon fill="#9F9F9F" points="491.399,136.08 445.919,136.08 445.919,99.24 434.999,99.24 434.999,183 445.919,183 
		445.919,146.28 491.399,146.28 491.399,183 502.319,183 502.319,99.24 491.399,99.24 	"/>
	<polygon fill="#9F9F9F" points="543.585,183 601.665,183 601.665,172.8 554.505,172.8 554.505,146.16 597.345,146.16 
		597.345,135.96 554.505,135.96 554.505,109.44 601.665,109.44 601.665,99.24 543.585,99.24 	"/>
	<path d="M676.344,82.488L633.72,183h14.256l10.8-25.776h48.816l10.8,25.776h14.256L690.024,82.488H676.344z M702.408,145.272
		H663.96v-0.72l19.152-45.936h0.288l19.008,45.936V145.272z"/>
	<path d="M808.286,82.488h-39.312V183h13.104v-36.576h26.208c29.088,0,38.448-16.704,38.448-31.968
		C846.734,99.192,837.374,82.488,808.286,82.488z M806.99,134.04h-24.912V94.872h24.912c21.456,0,26.64,10.224,26.64,19.584
		S828.446,134.04,806.99,134.04z"/>
	<rect x="886.902" y="82.488" width="13.104" height="100.512"/>
	<path d="M956.909,109.56c0-10.8,11.232-16.56,25.776-16.56c10.512,0,19.585,2.448,27.075,5.472h1v-12.24
		c-7.92-3.024-17.851-5.184-29.515-5.184c-24.336,0-37.296,13.536-37.296,29.52c0,35.424,61.201,23.616,61.201,44.928
		c0,12.528-10.945,16.704-25.201,16.704c-16.56,0-27.936-4.896-34.128-8.352h-0.72v12.816c8.496,4.032,20.592,7.776,36.144,7.776
		c22.315,0,36.865-11.808,36.865-28.08C1018.11,118.344,956.909,134.472,956.909,109.56z"/>
	<path fill="#FFFFFF" d="M138.5,14C73.607,14,21,66.607,21,131.5C21,196.393,73.607,249,138.5,249
		c64.893,0,117.5-52.607,117.5-117.5C256,66.607,203.393,14,138.5,14z M225.46,180.413c3.206,6.679,1.514,14.962-4.632,19.059
		c-2.404,1.603-5.254,2.405-8.015,2.405c-5.433,0-10.599-3.028-13.181-8.194L151.538,77.1c-3.83-7.838-14.874-8.016-18.971-0.267
		l-16.8,35.269h25.439c8.105,0,14.606,6.501,14.606,14.606c0,8.104-6.501,14.606-14.606,14.606h-39.353l-24.86,52.191
		c-3.563,6.858-11.756,10.331-18.881,7.392c-8.016-3.384-11.222-12.736-7.303-20.306l19.016-39.277h-0.136
		c-8.105,0-14.606-6.502-14.606-14.606c0-8.105,6.502-14.606,14.606-14.606h14.279l33.548-69.291
		c4.809-9.708,14.428-15.586,25.294-15.408c10.865,0.178,20.306,6.413,24.759,16.209l27.963,66.078
		c3.26-2.189,7.181-3.468,11.402-3.468c11.314,0,20.485,9.171,20.485,20.485c0,9.846-6.949,18.063-16.209,20.03L225.46,180.413z"/>
	<path d="M186.45,126.708c0-7.092,3.605-13.34,9.082-17.017l-27.963-66.078c-4.453-9.797-13.894-16.031-24.759-16.209
		c-10.866-0.178-20.485,5.7-25.294,15.408l-33.548,69.291h31.799l16.8-35.269c4.097-7.748,15.141-7.57,18.971,0.267l48.094,116.583
		c2.582,5.166,7.748,8.194,13.181,8.194c2.761,0,5.611-0.802,8.015-2.405c6.146-4.097,7.838-12.38,4.632-19.059l-14.25-33.675
		c-1.38,0.293-2.808,0.454-4.276,0.454C195.621,147.192,186.45,138.021,186.45,126.708z"/>
	<path d="M50.808,180.591c-3.919,7.57-0.713,16.922,7.303,20.306c7.125,2.939,15.319-0.534,18.881-7.392l24.86-52.191H69.825
		L50.808,180.591z"/>
	<path fill="#C41E3A" d="M227.419,126.708c0-11.314-9.171-20.485-20.485-20.485c-4.221,0-8.143,1.279-11.402,3.468
		c-5.476,3.677-9.082,9.925-9.082,17.017c0,11.313,9.171,20.484,20.484,20.484c1.467,0,2.896-0.161,4.276-0.454
		C220.47,144.771,227.419,136.554,227.419,126.708z"/>
	<path fill="#C41E3A" d="M69.689,112.102c-8.105,0-14.606,6.501-14.606,14.606c0,8.104,6.502,14.606,14.606,14.606h0.136h32.028
		h39.353c8.105,0,14.606-6.502,14.606-14.606c0-8.105-6.501-14.606-14.606-14.606h-25.439H83.968H69.689z"/>
</g>
</svg>
